<?xml version="1.0" encoding="iso-8859-1"?>
<!-- Generator: Adobe Illustrator 19.0.0, SVG Export Plug-In . SVG Version: 6.00 Build 0)  -->
<svg version="1.1" id="Capa_1" xmlns="http://www.w3.org/2000/svg" xmlns:xlink="http://www.w3.org/1999/xlink" x="0px" y="0px"
	 viewBox="0 0 511.99 511.99" style="enable-background:new 0 0 511.99 511.99;" xml:space="preserve">
<path style="fill:#3EB798;" d="M204.417,0.08C91.524,0.08,0,91.604,0,204.497s91.524,204.417,204.417,204.417
	s204.417-91.524,204.417-204.417l0,0C408.833,91.604,317.309,0.08,204.417,0.08z M204.417,326.987
	C138.828,326.3,85.807,273.28,85.12,207.691h238.593C323.026,273.28,270.006,326.3,204.417,326.987z"/>
<g style="opacity:0.4;">
	<path style="fill:#3EB798;" d="M435.983,148.442c31.301,127.457-46.633,256.16-174.09,287.461
		c-37.242,9.151-76.129,9.151-113.371,0c70.923,87.835,199.626,101.554,287.461,30.631s101.554-199.626,30.631-287.461
		C457.526,167.813,447.257,157.545,435.983,148.442z"/>
</g>
<g>
</g>
<g>
</g>
<g>
</g>
<g>
</g>
<g>
</g>
<g>
</g>
<g>
</g>
<g>
</g>
<g>
</g>
<g>
</g>
<g>
</g>
<g>
</g>
<g>
</g>
<g>
</g>
<g>
</g>
</svg>
