<svg id="Layer_1" height="512" viewBox="0 0 64 64" width="512" xmlns="http://www.w3.org/2000/svg" data-name="Layer 1"><path d="m23.326 18a11.31 11.31 0 0 1 9.99-6h18.384a11.312 11.312 0 0 1 11.312 11.312v5.447a11.312 11.312 0 0 1 -11.241 11.312l-1.841.012 9.458 11.952-15.388-9.035h-5.626z" fill="#fcc325"/><path d="m58 27h-11a1 1 0 0 1 0-2h11a1 1 0 0 1 0 2z" fill="#1d7d9f"/><path d="m55 33h-8a1 1 0 0 1 0-2h8a1 1 0 0 1 0 2z" fill="#1d7d9f"/><path d="m58 21h-14a1 1 0 0 1 0-2h14a1 1 0 0 1 0 2z" fill="#1d7d9f"/><g opacity=".1"><path d="m32 18s9-1 11 5c0 0 3 15-2 20h-5z"/></g><path d="m14.082 46.082-1.841-.012a11.312 11.312 0 0 1 -11.241-11.311v-5.447a11.312 11.312 0 0 1 11.312-11.312h18.388a11.312 11.312 0 0 1 11.308 11.3v5.394a11.312 11.312 0 0 1 -11.355 11.32l-5.528-.014-20.501 12.034z" fill="#23a8cc"/><g fill="#fcc325"><path d="m27 39h-1a1 1 0 0 1 0-2h1a1 1 0 0 1 0 2z"/><path d="m31 39h-1a1 1 0 0 1 0-2h1a1 1 0 0 1 0 2z"/><path d="m23 39h-1a1 1 0 0 1 0-2h1a1 1 0 0 1 0 2z"/><path d="m36 33h-27a1 1 0 0 1 0-2h27a1 1 0 0 1 0 2z"/><path d="m18 39h-9a1 1 0 0 1 0-2h9a1 1 0 0 1 0 2z"/><path d="m36 27h-27a1 1 0 0 1 0-2h27a1 1 0 0 1 0 2z"/></g><g opacity=".1"><path d="m41.839 27.429a11.306 11.306 0 0 0 -11.139-9.429h-18.388a11.312 11.312 0 0 0 -11.312 11.312v5.447a11.291 11.291 0 0 0 .549 3.474c2.503-2.973 8.025-8.097 16.451-8.233 9.67-.156 18.429 1.474 23.839-2.571z" fill="#fff"/></g></svg>